# xmcd CD database file
#
# Track frame offsets:
#	150
#	17312
#	35801
#	53606
#	73743
#	89362
#	117099
#	133457
#	153038
#	169270
#	188742
#	210075
#
# Disc length: 3076 seconds
#
# Revision: 0
# Processed by: cddbd v1.5.1PL0 Copyright (c) Steve Scherf et al.
# Submitted via: CDex 1.51
#
DISCID=980c020c
DTITLE=Kick The Kangaroo - Bits and Pieces
DYEAR=2003
DGENRE=Rock
TTITLE0=Something Else
TTITLE1=Last Kiss
TTITLE2=Human Inspiration
TTITLE3=I Would Do Anything
TTITLE4=The Girl (I really loved)
TTITLE5=Demons And Ghosts
TTITLE6=Smile
TTITLE7=Throw Me Out
TTITLE8=Perfect Day
TTITLE9=Think About The Rain
TTITLE10=Beautiful Someone
TTITLE11=Straight To The Sun
EXTD=YEAR: 2003
EXTT0=
EXTT1=
EXTT2=
EXTT3=
EXTT4=
EXTT5=
EXTT6=
EXTT7=
EXTT8=
EXTT9=
EXTT10=
EXTT11=
PLAYORDER=
